<svg width="15" height="15" viewBox="0 0 15 15" fill="none" xmlns="http://www.w3.org/2000/svg">
<path d="M8.828 0.722001C8.89371 0.721884 8.95879 0.734718 9.01954 0.759769C9.08028 0.784821 9.13549 0.821599 9.182 0.868001L14.132 5.818C14.2257 5.91176 14.2784 6.03892 14.2784 6.1715C14.2784 6.30408 14.2257 6.43124 14.132 6.525C13.652 7.005 13.06 7.113 12.629 7.113C12.452 7.113 12.294 7.095 12.169 7.074L9.035 10.208C9.11751 10.5404 9.17104 10.8793 9.195 11.221C9.241 11.923 9.16301 12.908 8.47501 13.596C8.38124 13.6897 8.25409 13.7424 8.1215 13.7424C7.98892 13.7424 7.86177 13.6897 7.768 13.596L4.939 10.768L1.757 13.95C1.562 14.145 0.538004 14.852 0.343004 14.657C0.148004 14.462 0.855004 13.437 1.05 13.243L4.232 10.061L1.404 7.232C1.31027 7.13824 1.25761 7.01108 1.25761 6.8785C1.25761 6.74592 1.31027 6.61876 1.404 6.525C2.092 5.837 3.077 5.758 3.779 5.805C4.12066 5.82894 4.4596 5.88247 4.792 5.965L7.926 2.832C7.89985 2.67972 7.88647 2.52551 7.886 2.371C7.886 1.941 7.99401 1.349 8.47501 0.868001C8.56871 0.774532 8.69565 0.722029 8.828 0.722001V0.722001Z" fill="#D11818"/>
</svg>
