<svg width="20" height="23" viewBox="0 0 20 23" fill="none" xmlns="http://www.w3.org/2000/svg">
<path d="M0.880005 17.054C2.25619 10.9647 5.19661 5.33964 9.41101 0.733997C9.48594 0.652472 9.57698 0.58739 9.67836 0.542871C9.77975 0.498352 9.88927 0.475365 10 0.475365C10.1107 0.475365 10.2203 0.498352 10.3216 0.542871C10.423 0.58739 10.5141 0.652472 10.589 0.733997C10.755 0.913997 10.893 1.066 11.002 1.189C14.9986 5.71087 17.7906 11.1674 19.12 17.054C16.979 17.505 14.78 17.801 12.536 17.928L10.447 22.106C10.4054 22.1889 10.3416 22.2587 10.2627 22.3074C10.1837 22.3562 10.0928 22.382 10 22.382C9.90723 22.382 9.81628 22.3562 9.73734 22.3074C9.6584 22.2587 9.59457 22.1889 9.55301 22.106L7.464 17.928C5.25046 17.8029 3.04953 17.5107 0.880005 17.054V17.054ZM10 14C10.7957 14 11.5587 13.6839 12.1213 13.1213C12.6839 12.5587 13 11.7956 13 11C13 10.2043 12.6839 9.44129 12.1213 8.87868C11.5587 8.31607 10.7957 8 10 8C9.20436 8 8.44129 8.31607 7.87868 8.87868C7.31607 9.44129 7 10.2043 7 11C7 11.7956 7.31607 12.5587 7.87868 13.1213C8.44129 13.6839 9.20436 14 10 14V14Z" fill="#2F80ED"/>
</svg>
